<?xml version="1.0" encoding="UTF-8" standalone="no"?>
<!DOCTYPE svg PUBLIC "-//W3C//DTD SVG 1.1//EN" "http://www.w3.org/Graphics/SVG/1.1/DTD/svg11.dtd">
<svg width="100%" height="100%" viewBox="0 0 1020 2466" version="1.1" xmlns="http://www.w3.org/2000/svg" xmlns:xlink="http://www.w3.org/1999/xlink" xml:space="preserve" xmlns:serif="http://www.serif.com/" style="fill-rule:evenodd;clip-rule:evenodd;stroke-linecap:round;stroke-linejoin:round;stroke-miterlimit:1.5;">
    <g transform="matrix(1,0,0,1,-72457.3,-25672.2)">
        <g id="Artboard14" transform="matrix(1.39488,0,0,1.26042,-17172.3,-8112.79)">
            <rect x="60445" y="26627" width="5660" height="5660" style="fill:none;"/>
            <g transform="matrix(-0.716909,0,0,0.793384,114513,5676.5)">
                <path d="M69626.2,27855.9C69768.1,28203 69502.3,28260.9 69504,28523.5C69505.3,28736.6 69799.7,28863.3 69614.5,29082.9" style="fill:none;stroke:rgb(237,52,148);stroke-width:25px;"/>
            </g>
            <g transform="matrix(-0.716909,0,0,0.793384,114513,5676.5)">
                <path d="M69703.4,27886C69790.6,28023 69785.1,28186.7 69740,28339.4C69724.7,28391.2 69702.3,28432.4 69704.8,28488.7C69712.3,28652.7 69857.7,28715.4 69838.3,28893.7" style="fill:none;stroke:rgb(237,52,148);stroke-width:25px;"/>
            </g>
            <g transform="matrix(-0.716909,0,0,0.793384,114513,5676.5)">
                <path d="M69613.9,27898.4C69645.4,28137 69483.4,28290.9 69395.2,28494.6C69338.1,28626.6 69341.1,28776.9 69329.1,28918.1" style="fill:none;stroke:rgb(237,52,148);stroke-width:25px;"/>
            </g>
            <g transform="matrix(-0.716909,0,0,0.793384,114513,5676.5)">
                <path d="M69848.2,27741.1C69828.9,27654.5 69780.2,27530.3 69791.2,27423.5C69811.1,27231.5 69961.8,26993.2 69802.1,26818.1C69667.5,26670.5 69415.9,26755.5 69341.1,26922.7C69216.6,27200.9 69260.6,27517.9 69394.3,27811.8C69505.7,28056.5 69888.5,27921.6 69848.2,27741.1Z" style="fill:rgb(237,52,148);"/>
            </g>
            <g transform="matrix(-0.716909,0,0,0.793384,115080,5626.51)">
                <path d="M70387,27210.5C70408,27220.4 70428.5,27217.7 70446.7,27202.7" style="fill:none;stroke:black;stroke-width:12.5px;"/>
            </g>
            <g transform="matrix(0.716909,0,0,0.793384,14477,5979.57)">
                <circle cx="69828.8" cy="26620.7" r="62.67" style="stroke:white;stroke-width:25.92px;"/>
            </g>
            <g transform="matrix(0.716909,0,0,0.793384,14620.8,5993.06)">
                <circle cx="69828.8" cy="26620.7" r="62.67" style="stroke:white;stroke-width:25.92px;"/>
            </g>
            <g transform="matrix(0.716909,0,0,0.793384,14010.3,5965.29)">
                <path d="M70503.1,26529.7C70514,26538.7 70525,26547.5 70536.3,26555.9" style="fill:none;stroke:black;stroke-width:16.67px;"/>
            </g>
            <g transform="matrix(0.716909,0,0,0.793384,14010.3,5965.29)">
                <path d="M70665.9,26539.8C70652.8,26548.7 70640,26558.2 70626.3,26566.2" style="fill:none;stroke:black;stroke-width:16.67px;"/>
            </g>
            <g transform="matrix(0.716909,0,0,0.793384,12579.8,5725.69)">
                <path d="M72432.7,26846.8C72366.4,26802.9 72285.1,26753.5 72202.3,26758.7" style="fill:none;stroke:rgb(237,52,148);stroke-width:12.5px;"/>
            </g>
            <g transform="matrix(0.716909,0,0,0.793384,12579.8,5725.69)">
                <path d="M72511.7,26745.6C72469.4,26670.2 72408.9,26600.2 72323.8,26574.4" style="fill:none;stroke:rgb(237,52,148);stroke-width:12.5px;"/>
            </g>
            <g transform="matrix(0.716909,0,0,0.793384,12579.8,5725.69)">
                <path d="M72689.5,26775.2C72758.4,26677 72854.2,26600 72975.6,26578.9" style="fill:none;stroke:rgb(237,52,148);stroke-width:12.5px;"/>
            </g>
            <g transform="matrix(0.716909,0,0,0.793384,12579.8,5725.69)">
                <path d="M72761.1,26846.8C72854,26755.4 72959.4,26682.3 73095.9,26699.8" style="fill:none;stroke:rgb(237,52,148);stroke-width:12.5px;"/>
            </g>
            <g transform="matrix(0.716909,0,0,0.793384,12579.8,5725.69)">
                <path d="M72771,26906.1C72834.8,26870.6 72907.4,26831.4 72983.2,26845" style="fill:none;stroke:rgb(237,52,148);stroke-width:12.5px;"/>
            </g>
            <g transform="matrix(0.716909,0,0,0.793384,12579.8,5725.69)">
                <path d="M72358.7,26881.4C72268.4,26854.8 72171.7,26836.5 72088.5,26891.2" style="fill:none;stroke:rgb(237,52,148);stroke-width:12.5px;"/>
            </g>
        </g>
    </g>
</svg>
