<?xml version="1.0" encoding="UTF-8" standalone="no"?>
<!DOCTYPE svg PUBLIC "-//W3C//DTD SVG 1.1//EN" "http://www.w3.org/Graphics/SVG/1.1/DTD/svg11.dtd">
<svg width="100%" height="100%" viewBox="0 0 165 262" version="1.1" xmlns="http://www.w3.org/2000/svg" xmlns:xlink="http://www.w3.org/1999/xlink" xml:space="preserve" xmlns:serif="http://www.serif.com/" style="fill-rule:evenodd;clip-rule:evenodd;stroke-linecap:round;stroke-linejoin:round;stroke-miterlimit:1.5;">
    <g transform="matrix(1,0,0,1,-56778,-20587)">
        <g id="Artboard17" transform="matrix(0.859375,0,0,1,8283.47,0)">
            <rect x="56430" y="20587" width="192" height="262" style="fill:none;"/>
            <g transform="matrix(-0.183544,0,0,-0.0953583,66002.7,22684.4)">
                <path d="M51350.5,19488C51575,19784.3 51360.5,20054.4 51390.2,20371.2C51404,20518.6 51502.4,20647.7 51531,20793.6" style="fill:none;stroke:rgb(255,201,76);stroke-width:103.5px;"/>
            </g>
            <g transform="matrix(0.183544,0,0,-0.0953583,47045.6,22684.4)">
                <path d="M51350.5,19488C51575,19784.3 51360.5,20054.4 51390.2,20371.2C51404,20518.6 51502.4,20647.7 51531,20793.6" style="fill:none;stroke:rgb(255,201,76);stroke-width:103.5px;"/>
            </g>
            <g transform="matrix(0.183544,0,0,0.157733,47279.7,17601.7)">
                <circle cx="50378.5" cy="19406.5" r="388.5" style="fill:rgb(251,214,4);"/>
            </g>
        </g>
    </g>
</svg>
