<?xml version="1.0" standalone="no"?>
<!DOCTYPE svg PUBLIC "-//W3C//DTD SVG 20010904//EN" "http://www.w3.org/TR/2001/REC-SVG-20010904/DTD/svg10.dtd">
<!-- Created using Krita: https://krita.org -->
<svg xmlns="http://www.w3.org/2000/svg" 
    xmlns:xlink="http://www.w3.org/1999/xlink"
    xmlns:krita="http://krita.org/namespaces/svg/krita"
    xmlns:sodipodi="http://sodipodi.sourceforge.net/DTD/sodipodi-0.dtd"
    width="259.2pt"
    height="259.2pt"
    viewBox="0 0 259.2 259.2">
<defs/>
<path id="shape0" transform="translate(91.2, 139.2)" fill="none" stroke="#f0c518" stroke-width="10.3968" stroke-linecap="square" stroke-linejoin="bevel" d="M19.2 0C18.8277 70.4275 12.4277 107.227 0 110.4" sodipodi:nodetypes="cc"/><path id="shape1" transform="translate(124.8, 139.2)" fill="none" stroke="#f10a80" stroke-width="10.3968" stroke-linecap="square" stroke-linejoin="bevel" d="M0 0C0.0937335 13.9026 0.237176 26.516 0.430329 37.8403C1.16592 80.9672 2.62248 105.397 4.8 111.13" sodipodi:nodetypes="ccc"/><path id="shape01" transform="translate(92.9399999999995, 67.2)" sodipodi:type="arc" sodipodi:rx="24" sodipodi:ry="24" sodipodi:cx="24" sodipodi:cy="24" sodipodi:start="6.28318530717959" sodipodi:end="6.28318530717959" sodipodi:open="true" d="M48 24C48 10.7452 37.2548 -8.0179e-15 24 0C10.7452 8.0179e-15 -1.01495e-14 10.7452 0 24C1.01495e-14 37.2548 10.7452 48 24 48C37.2548 48 48 37.2548 48 24Z" fill="#50d8ff" stroke="#50d8ff" stroke-width="50.6184" stroke-linecap="square" stroke-linejoin="bevel"/><path id="shape2" transform="matrix(-0.744823024314006 0.667262064298393 -0.667262064298393 -0.744823024314006 156.111983733685 62.3473627237601)" fill="#75defc" fill-rule="evenodd" stroke="#75defc" stroke-width="2.5656" stroke-linecap="square" stroke-linejoin="bevel" d="M0.0645943 5.07221C-1.40132 33.3909 22.3307 50.5777 46.0867 53.1445C69.8427 55.7113 82.3254 41.8992 90.7893 28.3747C97.1445 15.0117 97.854 -11.2365 93.9677 6.77801C90.0814 24.7925 69.4798 52.1173 38.1075 40.8042C0.102535 27.0995 1.06741 -14.3003 0.0645943 5.07221Z" sodipodi:nodetypes="czczss"/><ellipse id="shape3" transform="translate(126.48, 249.6)" rx="4.44" ry="3.83999999999999" cx="4.44" cy="3.83999999999999" fill="none" stroke="#f10a80" stroke-width="2.5656" stroke-linecap="square" stroke-linejoin="bevel"/><rect id="shape4" transform="translate(129.6, 252.96)" fill="none" stroke="#f10a80" stroke-width="2.5656" stroke-linecap="square" stroke-linejoin="bevel" width="4.07999999999998" height="3.12"/><ellipse id="shape5" transform="translate(82.44, 246.36)" rx="4.68" ry="4.08" cx="4.68" cy="4.08" fill="none" stroke="#f0c518" stroke-width="2.5656" stroke-linecap="square" stroke-linejoin="bevel"/><rect id="shape6" transform="translate(84.72, 246.96)" fill="none" stroke="#f0c518" stroke-width="2.5656" stroke-linecap="square" stroke-linejoin="bevel" width="5.28" height="5.28"/><rect id="shape7" transform="translate(83.04, 247.68)" fill="none" stroke="#f0c518" stroke-width="2.5656" stroke-linecap="square" stroke-linejoin="bevel" width="4.8" height="5.03999999999999"/><rect id="shape8" transform="translate(85.92, 247.68)" fill="none" stroke="#f0c518" stroke-width="2.5656" stroke-linecap="square" stroke-linejoin="bevel" width="2.40000000000001" height="4.08000000000001"/><rect id="shape9" transform="translate(116.88, 74.4)" fill="none" stroke="#50d8ff" stroke-width="2.5656" stroke-linecap="square" stroke-linejoin="bevel" width="15.36" height="31.2"/><ellipse id="shape10" transform="translate(81.42, 58.65)" rx="9.45242696629184" ry="8.65499999999973" cx="9.45242696629184" cy="8.65499999999973" fill="#def7ff" fill-rule="evenodd" stroke="#def7ff" stroke-width="2.5656" stroke-linecap="square" stroke-linejoin="bevel"/><path id="shape11" transform="matrix(0.963462190693484 -0.267844371051765 0.267844371051765 0.963462190693484 84.7827144215931 108.603471726637)" fill="#43c4e9" fill-rule="evenodd" stroke="#43c4e9" stroke-width="2.5656" stroke-linecap="square" stroke-linejoin="bevel" d="M0.0447489 23.798C1.46565 26.8125 27.4407 51.365 58.3955 34.8116C74.2272 27.3544 82.1616 7.92893 83.0394 0.03961C83.8951 -0.94605 73.1268 16.7063 59.2364 25.9301C31.3136 44.4721 -1.37615 20.7836 0.0447489 23.798Z" sodipodi:nodetypes="ccccc"/>
</svg>
